<svg width="619" height="74" viewBox="0 0 619 74" fill="none" xmlns="http://www.w3.org/2000/svg">
<g clip-path="url(#clip0_1080_221)">
<path d="M618.771 0V50.44H617.151V1.62H614.751V1.44H541.631V0H618.771Z" fill="white" style="fill:white;fill-opacity:1;"/>
<path d="M541.63 0H464.48V1.44H541.63V0Z" fill="white" style="fill:white;fill-opacity:1;"/>
<path d="M541.63 8.43994H540.01V50.4399H541.63V8.43994Z" fill="white" style="fill:white;fill-opacity:1;"/>
<path d="M464.48 0H387.34V1.44H464.48V0Z" fill="white" style="fill:white;fill-opacity:1;"/>
<path d="M464.479 8.43994H462.859V50.4399H464.479V8.43994Z" fill="white" style="fill:white;fill-opacity:1;"/>
<path d="M387.339 0H310.199V1.44H387.339V0Z" fill="white" style="fill:white;fill-opacity:1;"/>
<path d="M387.341 8.43994H385.721V50.4399H387.341V8.43994Z" fill="white" style="fill:white;fill-opacity:1;"/>
<path d="M310.201 0H233.051V1.44H310.201V0Z" fill="white" style="fill:white;fill-opacity:1;"/>
<path d="M310.2 8.43994H308.58V50.4399H310.2V8.43994Z" fill="white" style="fill:white;fill-opacity:1;"/>
<path d="M233.05 0H155.91V1.44H233.05V0Z" fill="white" style="fill:white;fill-opacity:1;"/>
<path d="M233.05 8.43994H231.43V50.4399H233.05V8.43994Z" fill="white" style="fill:white;fill-opacity:1;"/>
<path d="M155.91 0H78.7695V1.44H155.91V0Z" fill="white" style="fill:white;fill-opacity:1;"/>
<path d="M155.909 8.43994H154.289V50.4399H155.909V8.43994Z" fill="white" style="fill:white;fill-opacity:1;"/>
<path d="M78.77 0V1.44H3.75V1.62H1.62V50.44H0V0H78.77Z" fill="white" style="fill:white;fill-opacity:1;"/>
<path d="M78.7704 8.43994H77.1504V50.4399H78.7704V8.43994Z" fill="white" style="fill:white;fill-opacity:1;"/>
<path d="M41.5508 73.09C49.3608 73.09 55.8108 69.77 57.7608 62.48L52.6808 60.79C51.3108 65.93 46.8208 68.02 42.0008 68.02C33.8608 68.02 30.2108 63.2 30.2108 55.58V43.73C30.2108 36.7 33.6608 31.29 41.5408 31.29C45.9008 31.29 50.8508 33.11 52.6708 38.78L57.7508 37.09C55.5408 30.19 49.9408 26.22 42.1208 26.22C31.3108 26.22 24.8008 33.38 24.8008 42.89V56.5C24.8008 66.01 30.7308 73.1 41.5308 73.1L41.5508 73.09Z" fill="white" style="fill:white;fill-opacity:1;"/>
<path d="M117.66 26.9301C107.43 26.9301 101.25 34.2201 101.25 43.6601V57.0801C101.25 66.5201 107.43 73.8101 117.66 73.8101C127.89 73.8101 134.06 66.5201 134.06 57.0801V43.6601C134.06 34.2201 127.88 26.9301 117.66 26.9301ZM128.66 56.4301C128.66 64.1701 124.49 68.7301 117.66 68.7301C110.83 68.7301 106.65 64.1701 106.65 56.4301V44.3101C106.65 36.5701 110.82 32.0101 117.66 32.0101C124.5 32.0101 128.66 36.5701 128.66 44.3101V56.4301Z" fill="white" style="fill:white;fill-opacity:1;"/>
<path d="M183.939 37.8L206.399 73.16H211.609V27.58H206.209V63.26L183.739 27.58H178.529V73.16H183.939V37.8Z" fill="white" style="fill:white;fill-opacity:1;"/>
<path d="M273.07 73.8099C280.88 73.8099 287.33 70.4899 289.28 63.1999L284.2 61.5099C282.83 66.6499 278.34 68.7399 273.52 68.7399C265.38 68.7399 261.73 63.9199 261.73 56.2999V44.4499C261.73 37.4199 265.18 32.0099 273.06 32.0099C277.42 32.0099 282.37 33.8299 284.19 39.4999L289.27 37.8099C287.06 30.9099 281.46 26.9399 273.64 26.9399C262.83 26.9399 256.32 34.0999 256.32 43.6099V57.2199C256.32 66.7299 262.25 73.8199 273.05 73.8199L273.07 73.8099Z" fill="white" style="fill:white;fill-opacity:1;"/>
<path d="M361.99 56.88C367.06 54.54 369.93 49.65 369.93 43.92V42.17C369.93 33.96 364 27.58 354.3 27.58H337.76V73.16H343.17V58.51H354.3C355.08 58.51 355.86 58.44 356.58 58.38L365.57 73.16H372.08L361.99 56.88ZM354.63 53.5H343.17V32.33H354.63C360.75 32.33 364.52 36.31 364.52 42.69V43.14C364.52 49.52 360.75 53.5 354.63 53.5Z" fill="white" style="fill:white;fill-opacity:1;"/>
<path d="M442.351 68.08H417.541V52.91H439.741V47.83H417.541V32.66H441.701V27.58H412.141V73.16H442.351V68.08Z" fill="white" style="fill:white;fill-opacity:1;"/>
<path d="M506.02 33.3801H520.67V28.3H485.9V33.3801H500.61V73.88H506.02V33.3801Z" fill="white" style="fill:white;fill-opacity:1;"/>
<path d="M566.24 73.16H596.46V68.08H571.65V52.91H593.85V47.83H571.65V32.66H595.8V27.58H566.24V73.16Z" fill="white" style="fill:white;fill-opacity:1;"/>
</g>
<defs>
<clipPath id="clip0_1080_221">
<rect width="618.77" height="73.88" fill="white" style="fill:white;fill-opacity:1;"/>
</clipPath>
</defs>
</svg>
